# xmcd
#
# Track frame offsets:
#	150
#	15395
#	31075
#	44125
#	56330
#	69277
#	81797
#	93090
#	108940
#	121592
#	133545
#	145530
#	160230
#	171110
#	184565
#	197060
#
# Disc length: 2804 seconds
#
# Revision: 1
# Processed by: cddbd v1.5.2PL0 Copyright (c) Steve Scherf et al.
# Submitted via: audiograbber 1.83.01
#
DISCID=be0af210
DTITLE=Gert and Hermien - Het beste van
DYEAR=1987
DGENRE=Hollands
TTITLE0=Gert and Hermien - Shalalie shalala
TTITLE1=Gert and Hermien - Als tranen diamanten zouden zijn
TTITLE2=Gert and Hermien - Ik heb eerbied voor jouw grijze haren
TTITLE3=Gert and Hermien - En dat vergeet ik nooit
TTITLE4=Gert and Hermien - De schommelstoel
TTITLE5=Gert and Hermien - Dans deze aond met mij
TTITLE6=Gert and Hermien - In der mondhellen nacht
TTITLE7=Gert and Hermien - Brandend zand
TTITLE8=Gert and Hermien - Waarom heeft men op het stadhuis dat verzwegen
TTITLE9=Gert and Hermien - Blume von Tahiti 
TTITLE10=Gert and Hermien - Reuzenrad
TTITLE11=Gert and Hermien - De nieuwe wereld
TTITLE12=Gert and Hermien - Als morgen de bruidsklok luidt
TTITLE13=Gert and Hermien - De vader van de bruid
TTITLE14=Gert and Hermien - Nimm deine weisse gitarre
TTITLE15=Gert and Hermien - Neem me in je armen
EXTD=
EXTT0=
EXTT1=
EXTT2=
EXTT3=
EXTT4=
EXTT5=
EXTT6=
EXTT7=
EXTT8=
EXTT9=
EXTT10=
EXTT11=
EXTT12=
EXTT13=
EXTT14=
EXTT15=
PLAYORDER=
